<svg xmlns="http://www.w3.org/2000/svg" width="375" viewBox="0 0 375 375" height="375" version="1.0"><defs><clipPath id="a"><path d="M 77 2 L 291.332031 2 L 291.332031 282 L 77 282 Z M 77 2"/></clipPath><clipPath id="b"><path d="M 107 261 L 190 261 L 190 288 L 107 288 Z M 107 261"/></clipPath></defs><path fill="#F9ED32" d="M 254.792969 33.8125 C 247.421875 31.949219 240.367188 29.246094 233.632812 25.710938 C 233.597656 25.808594 233.566406 25.902344 233.527344 26 C 232.625 28.367188 231.34375 30.503906 229.679688 32.414062 C 238.085938 33.808594 246.546875 34.445312 255.0625 34.332031 C 254.96875 34.140625 254.882812 33.976562 254.792969 33.8125 Z M 254.792969 33.8125"/><path fill="#FFEEF0" d="M 226.152344 11.496094 C 221.941406 7.65625 214.574219 5.375 207.613281 8.960938 C 199.324219 13.226562 198.691406 23.320312 201.394531 41.277344 C 202.628906 49.480469 202.519531 58.125 202.832031 68.191406 C 202.832031 68.742188 202.832031 70.59375 202.832031 71.109375 C 203.148438 88.667969 194.089844 99.675781 177.160156 105.445312 C 162.199219 110.546875 141.050781 121.503906 127.035156 143.925781 C 109.578125 171.828125 93.230469 180.785156 85.164062 183.636719 C 88.671875 185.449219 92.378906 186.632812 96.289062 187.179688 C 100.199219 187.730469 104.09375 187.617188 107.964844 186.839844 C 123.308594 183.644531 137.425781 170.234375 149.929688 146.855469 C 150.0625 146.609375 150.238281 146.394531 150.457031 146.21875 C 150.675781 146.039062 150.917969 145.910156 151.1875 145.828125 C 151.457031 145.746094 151.730469 145.71875 152.011719 145.75 C 152.292969 145.777344 152.558594 145.859375 152.804688 145.992188 C 153.054688 146.125 153.265625 146.300781 153.445312 146.519531 C 153.621094 146.738281 153.753906 146.980469 153.832031 147.25 C 153.914062 147.519531 153.941406 147.796875 153.914062 148.074219 C 153.882812 148.355469 153.804688 148.621094 153.671875 148.867188 C 141.105469 172.320312 126.75 186.308594 110.972656 190.488281 C 118.511719 192.503906 131.089844 194.324219 142.992188 188.960938 C 155.164062 183.46875 164.046875 171.734375 169.382812 154.066406 C 169.464844 153.796875 169.597656 153.554688 169.773438 153.335938 C 169.953125 153.117188 170.167969 152.9375 170.417969 152.804688 C 170.664062 152.671875 170.929688 152.589844 171.210938 152.5625 C 171.492188 152.535156 171.769531 152.5625 172.039062 152.644531 C 172.308594 152.722656 172.554688 152.855469 172.773438 153.035156 C 172.992188 153.210938 173.167969 153.425781 173.300781 153.675781 C 173.433594 153.925781 173.515625 154.191406 173.542969 154.472656 C 173.574219 154.753906 173.546875 155.027344 173.464844 155.296875 C 168.386719 172.078125 160.191406 183.917969 149.078125 190.5625 C 154.429688 190.152344 159.621094 189.011719 164.652344 187.140625 C 168.324219 185.75 171.773438 183.929688 174.992188 181.679688 C 175.253906 181.335938 175.585938 181.097656 175.992188 180.957031 C 186.421875 173.21875 192.953125 161.175781 195.460938 144.984375 C 195.503906 144.707031 195.597656 144.449219 195.746094 144.207031 C 195.890625 143.964844 196.078125 143.761719 196.304688 143.597656 C 196.53125 143.429688 196.78125 143.3125 197.054688 143.246094 C 197.328125 143.179688 197.605469 143.167969 197.882812 143.210938 C 198.160156 143.253906 198.421875 143.347656 198.660156 143.492188 C 198.902344 143.640625 199.105469 143.828125 199.273438 144.054688 C 199.4375 144.28125 199.554688 144.53125 199.621094 144.804688 C 199.6875 145.078125 199.699219 145.355469 199.65625 145.632812 C 197.324219 160.550781 191.851562 170.917969 185.308594 178.121094 C 202.128906 171.550781 212.160156 158.300781 215.847656 137.773438 C 219.539062 117.246094 216.066406 94.183594 213.515625 77.269531 L 213.226562 75.3125 C 209.730469 51.992188 212.644531 41.265625 215.066406 36.613281 C 213.925781 36.339844 212.828125 35.953125 211.769531 35.445312 C 211.519531 35.320312 211.300781 35.148438 211.117188 34.933594 C 210.933594 34.722656 210.796875 34.480469 210.710938 34.214844 C 210.621094 33.945312 210.589844 33.671875 210.609375 33.390625 C 210.628906 33.109375 210.703125 32.84375 210.832031 32.59375 C 210.957031 32.34375 211.125 32.125 211.339844 31.941406 C 211.554688 31.757812 211.792969 31.621094 212.058594 31.53125 C 212.328125 31.445312 212.601562 31.410156 212.882812 31.429688 C 213.164062 31.449219 213.429688 31.523438 213.679688 31.652344 C 213.757812 31.6875 218.28125 33.871094 222.667969 32.199219 C 225.582031 31.078125 227.914062 28.449219 229.5625 24.375 C 231.394531 19.925781 230.105469 15.097656 226.152344 11.496094 Z M 226.152344 11.496094"/><path fill="#5ED368" d="M 238.796875 108.34375 C 241.011719 113.289062 245.207031 116.242188 251.570312 117.375 C 262.746094 119.363281 272.707031 117.519531 278.90625 112.320312 C 283.804688 108.238281 286.285156 102.296875 286.285156 94.738281 C 286.285156 78.308594 264.585938 48.835938 257.960938 40.226562 C 251.875 50.71875 230.542969 89.902344 238.796875 108.34375 Z M 238.796875 108.34375"/><path fill="#39B54A" d="M 258.226562 30.25 L 258.742188 29.539062 C 259.5625 28.410156 261.742188 25.390625 262.539062 23.601562 C 262.261719 23.664062 261.917969 23.761719 261.503906 23.902344 C 259.371094 24.621094 258.082031 25.652344 257.667969 26.96875 C 257.398438 28.054688 257.460938 29.125 257.859375 30.171875 Z M 258.226562 30.25"/><path fill="#94FF99" d="M 278.90625 112.320312 C 283.804688 108.238281 286.285156 102.296875 286.285156 94.738281 C 286.285156 78.308594 264.585938 48.835938 257.960938 40.226562 C 257.960938 40.226562 291.269531 91.382812 278.90625 112.320312 Z M 278.90625 112.320312"/><path fill="#31AF38" d="M 244.222656 68.210938 C 238.5 82.457031 234.347656 98.421875 238.796875 108.363281 C 241.011719 113.304688 245.207031 116.261719 251.570312 117.390625 C 262.746094 119.378906 272.707031 117.539062 278.90625 112.335938 C 227.890625 125.867188 244.101562 68.625 244.222656 68.210938 Z M 244.222656 68.210938"/><path fill="#31AF38" d="M 250.929688 62.046875 C 250.476562 62.632812 252.050781 83.671875 269.925781 100.804688 Z M 250.929688 62.046875"/><path fill="#EAB5BC" d="M 185.320312 178.121094 C 202.140625 171.550781 212.171875 158.300781 215.859375 137.773438 C 219.550781 117.246094 216.078125 94.183594 213.527344 77.269531 C 213.527344 77.269531 221.46875 142.746094 192.726562 162.625"/><path fill="#EAB5BC" d="M 195.472656 144.984375 C 195.472656 144.984375 182.382812 178.070312 157.78125 180.601562 L 149.070312 190.5625 C 149.070312 190.5625 162.546875 189.597656 173.550781 185.140625 C 184.554688 180.6875 196.589844 156.089844 195.472656 144.984375 Z M 195.472656 144.984375"/><path fill="#EAB5BC" d="M 169.390625 154.066406 C 169.390625 154.066406 153.878906 182.773438 126.398438 182.957031 L 109.007812 190.5625 C 109.007812 190.5625 129.378906 202.417969 146.429688 189.644531 C 163.484375 176.871094 172.261719 162.65625 169.390625 154.066406 Z M 169.390625 154.066406"/><path fill="#EAB5BC" d="M 149.929688 146.855469 C 149.929688 146.855469 125.734375 180.144531 95.957031 178.121094 L 83.617188 182.957031 C 83.617188 182.957031 99.578125 195.78125 121.269531 183.789062 C 142.964844 171.796875 151.804688 147.859375 151.804688 147.859375"/><path fill="#EAB5BC" d="M 229.679688 18.785156 C 229.679688 18.785156 229.9375 29.367188 211.992188 31.609375 C 211.992188 31.59375 231.527344 41.394531 229.679688 18.785156 Z M 229.679688 18.785156"/><path fill="#EAB5BC" d="M 211.792969 35.46875 L 212.371094 45.695312 L 217.464844 35.46875 Z M 211.792969 35.46875"/><path fill="#563D41" d="M 222.738281 17.851562 C 222.738281 18.203125 222.714844 18.550781 222.667969 18.894531 C 222.621094 19.238281 222.550781 19.570312 222.460938 19.894531 C 222.371094 20.21875 222.257812 20.527344 222.125 20.816406 C 221.992188 21.109375 221.839844 21.378906 221.671875 21.628906 C 221.503906 21.875 221.320312 22.097656 221.121094 22.292969 C 220.921875 22.488281 220.714844 22.652344 220.492188 22.785156 C 220.273438 22.917969 220.042969 23.019531 219.8125 23.089844 C 219.578125 23.15625 219.339844 23.191406 219.101562 23.191406 C 218.863281 23.191406 218.625 23.15625 218.390625 23.089844 C 218.15625 23.019531 217.929688 22.917969 217.710938 22.785156 C 217.488281 22.652344 217.277344 22.488281 217.082031 22.292969 C 216.882812 22.097656 216.699219 21.875 216.53125 21.628906 C 216.359375 21.378906 216.210938 21.109375 216.078125 20.816406 C 215.945312 20.527344 215.832031 20.21875 215.742188 19.894531 C 215.648438 19.570312 215.582031 19.238281 215.535156 18.894531 C 215.488281 18.550781 215.464844 18.203125 215.464844 17.851562 C 215.464844 17.5 215.488281 17.152344 215.535156 16.808594 C 215.582031 16.464844 215.648438 16.132812 215.742188 15.808594 C 215.832031 15.484375 215.945312 15.175781 216.078125 14.882812 C 216.210938 14.59375 216.359375 14.324219 216.53125 14.074219 C 216.699219 13.828125 216.882812 13.605469 217.082031 13.410156 C 217.277344 13.214844 217.488281 13.050781 217.710938 12.917969 C 217.929688 12.785156 218.15625 12.683594 218.390625 12.613281 C 218.625 12.546875 218.863281 12.511719 219.101562 12.511719 C 219.339844 12.511719 219.578125 12.546875 219.8125 12.613281 C 220.042969 12.683594 220.273438 12.785156 220.492188 12.917969 C 220.714844 13.050781 220.921875 13.214844 221.121094 13.410156 C 221.320312 13.605469 221.503906 13.828125 221.671875 14.074219 C 221.839844 14.324219 221.992188 14.59375 222.125 14.882812 C 222.257812 15.175781 222.371094 15.484375 222.460938 15.808594 C 222.550781 16.132812 222.621094 16.464844 222.667969 16.808594 C 222.714844 17.152344 222.738281 17.5 222.738281 17.851562 Z M 222.738281 17.851562"/><g clip-path="url(#a)"><path fill="#563D41" d="M 262.898438 38.707031 C 268.695312 38.121094 271.699219 37.183594 271.976562 37.097656 C 272.273438 37 272.546875 36.859375 272.796875 36.667969 C 273.046875 36.476562 273.253906 36.253906 273.425781 35.988281 C 273.59375 35.726562 273.714844 35.445312 273.789062 35.140625 C 273.859375 34.835938 273.878906 34.527344 273.84375 34.214844 C 273.8125 33.90625 273.726562 33.609375 273.589844 33.328125 C 273.453125 33.046875 273.273438 32.796875 273.046875 32.578125 C 272.824219 32.359375 272.570312 32.183594 272.289062 32.054688 C 272.003906 31.921875 271.707031 31.84375 271.394531 31.8125 C 268.753906 31.570312 266.21875 31.230469 263.816406 30.792969 C 266.90625 26.378906 268.847656 22.785156 266.953125 20.199219 C 265.058594 17.617188 261.242188 18.894531 259.957031 19.316406 C 255.359375 20.859375 253.664062 23.558594 253.046875 25.546875 C 252.785156 26.402344 252.65625 27.277344 252.667969 28.171875 C 246.589844 26.402344 240.761719 24.019531 235.183594 21.027344 C 235.386719 16.269531 233.371094 11.550781 229.398438 7.921875 C 223.949219 2.949219 214.421875 0 205.398438 4.664062 C 193.503906 10.792969 195.023438 25.652344 196.945312 44.488281 C 197.757812 52.453125 198.695312 61.476562 198.695312 70.855469 C 198.695312 91.660156 184.421875 98.257812 180.042969 99.785156 C 178.726562 100.246094 176.996094 100.859375 175.265625 101.535156 C 159.203125 107.878906 138.75 118.121094 123.007812 141.265625 C 98.894531 176.710938 79.574219 180.144531 79.402344 180.144531 C 78.867188 180.222656 78.398438 180.4375 77.992188 180.796875 C 77.585938 181.152344 77.308594 181.59375 77.167969 182.117188 C 77.023438 182.636719 77.039062 183.15625 77.207031 183.671875 C 77.375 184.1875 77.667969 184.613281 78.09375 184.949219 C 81.433594 187.367188 85.066406 189.210938 88.988281 190.480469 C 92.910156 191.75 96.933594 192.386719 101.054688 192.386719 L 101.75 192.386719 C 101.84375 192.449219 101.941406 192.5 102.042969 192.546875 C 109.5625 195.722656 117.40625 197.332031 125.570312 197.375 C 130.289062 197.394531 134.910156 196.742188 139.4375 195.421875 C 140.277344 195.5 141.921875 195.625 144.164062 195.625 C 150.574219 195.625 156.84375 194.6875 162.972656 192.808594 L 152.753906 201.757812 C 152.425781 202.042969 152.183594 202.390625 152.019531 202.796875 C 151.859375 203.199219 151.800781 203.621094 151.839844 204.054688 C 151.882812 204.488281 152.023438 204.890625 152.257812 205.257812 C 152.492188 205.625 152.800781 205.917969 153.175781 206.140625 L 167.996094 214.804688 L 167.996094 258.265625 C 166.21875 258.265625 164.441406 258.308594 162.691406 258.347656 C 162.332031 258.359375 161.988281 258.433594 161.660156 258.582031 C 161.332031 258.726562 161.042969 258.929688 160.796875 259.191406 C 160.546875 259.449219 160.359375 259.75 160.230469 260.085938 C 160.101562 260.417969 160.039062 260.765625 160.050781 261.125 C 160.058594 261.484375 160.136719 261.832031 160.28125 262.160156 C 160.425781 262.488281 160.628906 262.777344 160.890625 263.023438 C 161.152344 263.273438 161.449219 263.460938 161.785156 263.589844 C 162.121094 263.71875 162.46875 263.78125 162.828125 263.769531 C 164.535156 263.730469 166.265625 263.707031 167.996094 263.6875 L 167.996094 271.675781 C 167.996094 272.035156 168.066406 272.382812 168.203125 272.714844 C 168.339844 273.046875 168.535156 273.339844 168.789062 273.59375 C 169.042969 273.847656 169.339844 274.042969 169.671875 274.179688 C 170.003906 274.316406 170.347656 274.386719 170.707031 274.386719 C 171.066406 274.386719 171.414062 274.316406 171.746094 274.179688 C 172.078125 274.042969 172.371094 273.847656 172.625 273.59375 C 172.878906 273.339844 173.074219 273.046875 173.210938 272.714844 C 173.347656 272.382812 173.417969 272.035156 173.417969 271.675781 L 173.417969 263.671875 C 187.675781 263.8125 201.066406 264.972656 211.417969 266.964844 C 224.027344 269.402344 227.570312 272.242188 227.867188 273.109375 C 227.769531 273.332031 226.90625 274.824219 221.457031 276.695312 C 221.125 276.816406 220.828125 277 220.566406 277.238281 C 220.304688 277.476562 220.097656 277.753906 219.945312 278.074219 C 219.792969 278.394531 219.707031 278.730469 219.6875 279.082031 C 219.664062 279.4375 219.710938 279.78125 219.828125 280.113281 C 219.941406 280.449219 220.113281 280.75 220.347656 281.019531 C 220.578125 281.285156 220.851562 281.5 221.167969 281.65625 C 221.484375 281.816406 221.816406 281.914062 222.167969 281.941406 C 222.523438 281.96875 222.867188 281.933594 223.203125 281.824219 C 229.972656 279.492188 233.257812 276.644531 233.257812 273.117188 C 233.257812 268.230469 226.777344 264.546875 213.441406 261.847656 C 202.617188 259.660156 188.488281 258.394531 173.371094 258.242188 L 173.371094 217.976562 L 181.0625 222.472656 C 182.75 223.457031 184.335938 224.585938 185.816406 225.859375 C 187.300781 227.132812 188.65625 228.527344 189.882812 230.046875 C 191.113281 231.566406 192.195312 233.183594 193.132812 234.898438 C 194.066406 236.613281 194.84375 238.398438 195.453125 240.253906 C 195.5625 240.601562 195.730469 240.917969 195.964844 241.199219 C 196.195312 241.480469 196.476562 241.703125 196.800781 241.875 C 197.125 242.042969 197.46875 242.140625 197.832031 242.171875 C 198.195312 242.199219 198.550781 242.15625 198.898438 242.042969 C 199.246094 241.929688 199.554688 241.75 199.832031 241.511719 C 200.105469 241.269531 200.324219 240.988281 200.484375 240.660156 C 200.644531 240.332031 200.734375 239.984375 200.753906 239.621094 C 200.777344 239.253906 200.722656 238.898438 200.601562 238.554688 C 199.886719 236.390625 198.984375 234.304688 197.890625 232.300781 C 196.796875 230.300781 195.535156 228.410156 194.101562 226.636719 C 192.664062 224.863281 191.082031 223.234375 189.351562 221.746094 C 187.621094 220.261719 185.773438 218.941406 183.804688 217.789062 L 173.371094 211.691406 L 173.371094 188.335938 C 174.949219 187.449219 176.476562 186.476562 177.945312 185.421875 C 232.691406 172.53125 223.367188 110.144531 218.324219 76.554688 L 218.035156 74.601562 C 214.101562 48.238281 218.734375 39.574219 220.121094 37.65625 C 221.578125 37.570312 222.992188 37.269531 224.359375 36.757812 C 224.574219 36.675781 224.785156 36.589844 225 36.496094 C 234.183594 38.214844 243.441406 39.109375 252.785156 39.183594 L 252.964844 39.183594 C 245.679688 51.914062 225.453125 90.363281 234.382812 110.308594 C 237.261719 116.722656 242.757812 120.722656 250.703125 122.132812 C 253.863281 122.707031 257.050781 123 260.261719 123.011719 C 269.003906 123.011719 276.523438 120.632812 282.015625 116.015625 C 287.972656 111.019531 291.125 103.65625 291.125 94.726562 C 291.125 77.472656 270.816406 49.113281 262.898438 38.707031 Z M 258.234375 27.136719 C 258.566406 26.078125 259.625 25.207031 261.375 24.566406 C 260.40625 26.242188 258.902344 28.320312 258.269531 29.230469 C 258.253906 29.25 258.238281 29.269531 258.226562 29.289062 C 258.035156 28.574219 258.035156 27.855469 258.226562 27.136719 Z M 159.148438 203.359375 L 167.996094 195.617188 L 167.996094 208.527344 Z M 215.273438 137.667969 C 211.773438 156.996094 202.628906 169.832031 187.386719 176.625 C 193.269531 169.453125 198.101562 159.511719 200.238281 145.726562 C 200.289062 145.371094 200.269531 145.023438 200.183594 144.679688 C 200.09375 144.332031 199.945312 144.019531 199.730469 143.734375 C 199.519531 143.445312 199.261719 143.210938 198.957031 143.027344 C 198.648438 142.84375 198.320312 142.726562 197.96875 142.671875 C 197.617188 142.617188 197.269531 142.628906 196.921875 142.714844 C 196.578125 142.796875 196.257812 142.941406 195.96875 143.152344 C 195.679688 143.359375 195.441406 143.613281 195.253906 143.917969 C 195.066406 144.21875 194.941406 144.546875 194.882812 144.898438 C 192.40625 160.878906 185.976562 172.777344 175.726562 180.425781 C 175.261719 180.597656 174.871094 180.878906 174.558594 181.265625 C 171.421875 183.441406 168.070312 185.207031 164.5 186.558594 C 160.292969 188.144531 155.957031 189.203125 151.492188 189.734375 C 161.671875 182.816406 169.238281 171.332031 174.035156 155.472656 C 174.148438 155.125 174.191406 154.773438 174.160156 154.40625 C 174.128906 154.042969 174.03125 153.699219 173.863281 153.378906 C 173.695312 153.054688 173.46875 152.777344 173.1875 152.542969 C 172.90625 152.308594 172.59375 152.140625 172.242188 152.035156 C 171.894531 151.929688 171.539062 151.894531 171.175781 151.933594 C 170.8125 151.972656 170.472656 152.078125 170.152344 152.253906 C 169.832031 152.429688 169.558594 152.664062 169.332031 152.949219 C 169.109375 153.234375 168.945312 153.554688 168.847656 153.90625 C 163.554688 171.394531 154.789062 183.007812 142.78125 188.425781 C 132.0625 193.25 120.785156 192.179688 113.210938 190.449219 C 128.324219 185.578125 142.089844 171.714844 154.183594 149.140625 C 154.351562 148.824219 154.457031 148.488281 154.492188 148.128906 C 154.527344 147.773438 154.492188 147.421875 154.386719 147.078125 C 154.285156 146.734375 154.117188 146.421875 153.890625 146.144531 C 153.664062 145.867188 153.390625 145.640625 153.074219 145.472656 C 152.757812 145.300781 152.417969 145.199219 152.0625 145.164062 C 151.703125 145.128906 151.351562 145.164062 151.007812 145.265625 C 150.664062 145.371094 150.355469 145.539062 150.074219 145.765625 C 149.796875 145.992188 149.574219 146.265625 149.402344 146.582031 C 136.988281 169.757812 123.011719 183.105469 107.875 186.261719 C 104.222656 187 100.550781 187.136719 96.851562 186.667969 C 93.15625 186.203125 89.628906 185.15625 86.277344 183.53125 C 94.433594 180 109.78125 170.328125 127.472656 144.320312 C 142.292969 122.527344 160.945312 113.015625 177.234375 106.582031 C 178.878906 105.9375 180.546875 105.347656 181.808594 104.902344 C 187.054688 103.078125 204.09375 95.230469 204.09375 70.855469 C 204.09375 61.203125 203.15625 52.027344 202.34375 43.933594 C 200.5625 26.507812 199.277344 13.917969 207.886719 9.484375 C 214.597656 6.027344 221.699219 8.21875 225.761719 11.929688 C 229.527344 15.363281 230.757812 19.945312 229.050781 24.171875 C 227.476562 28.078125 225.269531 30.582031 222.492188 31.65625 C 218.34375 33.25 214.011719 31.15625 213.976562 31.144531 C 213.660156 30.992188 213.320312 30.90625 212.96875 30.882812 C 212.613281 30.863281 212.269531 30.910156 211.933594 31.023438 C 211.601562 31.140625 211.300781 31.3125 211.03125 31.546875 C 210.765625 31.777344 210.550781 32.050781 210.390625 32.367188 C 210.230469 32.683594 210.136719 33.019531 210.109375 33.371094 C 210.082031 33.726562 210.121094 34.070312 210.226562 34.410156 C 210.335938 34.746094 210.5 35.050781 210.726562 35.324219 C 210.953125 35.597656 211.222656 35.816406 211.535156 35.984375 C 212.417969 36.398438 213.332031 36.734375 214.273438 36.992188 C 211.867188 42.105469 209.351562 53.070312 212.679688 75.386719 L 212.96875 77.347656 C 215.488281 94.230469 218.949219 117.332031 215.285156 137.667969 Z M 230.800781 31.960938 C 232.097656 30.296875 233.144531 28.484375 233.933594 26.527344 C 239.8125 29.554688 245.9375 31.957031 252.304688 33.738281 C 245.09375 33.671875 237.925781 33.082031 230.800781 31.960938 Z M 278.527344 111.871094 C 272.46875 116.960938 262.675781 118.757812 251.675781 116.796875 C 245.5 115.703125 241.460938 112.855469 239.332031 108.105469 C 235.515625 99.582031 237.8125 84.84375 245.964844 65.480469 C 249.511719 57.175781 253.535156 49.109375 258.03125 41.277344 C 265.179688 50.640625 285.734375 78.898438 285.734375 94.738281 C 285.734375 102.117188 283.289062 107.882812 278.527344 111.871094 Z M 278.527344 111.871094"/></g><path fill="#563D41" d="M 263.078125 84.710938 L 262.9375 84.652344 L 262.9375 75.65625 C 264.742188 75.746094 266.421875 76.25 267.980469 77.171875 L 269.117188 74.175781 C 267.285156 73.128906 265.316406 72.597656 263.210938 72.582031 L 263.210938 68.210938 L 260.394531 68.210938 L 260.394531 72.792969 C 256.21875 73.476562 253.542969 76.335938 253.542969 80.109375 C 253.542969 83.882812 256.140625 85.9375 260.394531 87.6875 L 260.394531 97.785156 C 258.160156 97.710938 256.101562 97.066406 254.222656 95.851562 L 253.128906 98.894531 C 254.71875 100.03125 257.445312 100.847656 260.074219 100.894531 L 260.074219 105.480469 L 262.9375 105.480469 L 262.9375 100.742188 C 267.601562 99.972656 270.113281 96.613281 270.113281 93.023438 C 270.113281 88.984375 267.75 86.621094 263.078125 84.710938 Z M 257.445312 79.53125 C 257.449219 79.105469 257.519531 78.691406 257.664062 78.289062 C 257.808594 77.886719 258.011719 77.515625 258.28125 77.183594 C 258.546875 76.851562 258.863281 76.574219 259.226562 76.347656 C 259.589844 76.121094 259.980469 75.964844 260.394531 75.871094 L 260.394531 83.449219 C 258.339844 82.367188 257.445312 81.265625 257.445312 79.53125 Z M 262.9375 97.464844 L 262.9375 88.832031 C 265.054688 89.996094 266.160156 91.367188 266.160156 93.34375 C 266.160156 95.320312 264.925781 96.824219 262.9375 97.464844 Z M 262.9375 97.464844"/><path fill="#563D41" d="M 166.585938 268.9375 C 166.574219 268.578125 166.496094 268.230469 166.347656 267.90625 C 166.199219 267.578125 165.992188 267.289062 165.730469 267.042969 C 165.464844 266.796875 165.164062 266.613281 164.828125 266.488281 C 164.492188 266.359375 164.144531 266.304688 163.78125 266.320312 C 158.402344 266.449219 153.054688 266.949219 147.742188 267.824219 C 143.355469 268.632812 139.285156 269.832031 139.285156 273.117188 C 139.285156 276.289062 143.015625 277.472656 147.042969 278.277344 C 147.21875 278.308594 147.398438 278.328125 147.578125 278.328125 C 147.886719 278.328125 148.1875 278.28125 148.480469 278.179688 C 148.773438 278.078125 149.039062 277.929688 149.28125 277.738281 C 149.523438 277.546875 149.726562 277.320312 149.890625 277.058594 C 150.054688 276.796875 150.171875 276.515625 150.238281 276.214844 C 150.304688 275.914062 150.324219 275.609375 150.285156 275.300781 C 150.25 274.996094 150.164062 274.703125 150.027344 274.425781 C 149.894531 274.148438 149.714844 273.902344 149.496094 273.683594 C 149.273438 273.46875 149.023438 273.292969 148.746094 273.164062 C 153.792969 272.324219 158.871094 271.851562 163.988281 271.738281 C 164.34375 271.726562 164.6875 271.644531 165.011719 271.492188 C 165.335938 271.34375 165.621094 271.136719 165.863281 270.875 C 166.109375 270.613281 166.292969 270.3125 166.417969 269.976562 C 166.542969 269.640625 166.597656 269.292969 166.585938 268.9375 Z M 166.585938 268.9375"/><path fill="#563D41" d="M 186.007812 266.890625 C 185.648438 266.855469 185.296875 266.890625 184.953125 266.996094 C 184.609375 267.101562 184.300781 267.269531 184.023438 267.496094 C 183.742188 267.726562 183.519531 268 183.351562 268.316406 C 183.183594 268.636719 183.082031 268.972656 183.046875 269.332031 C 183.015625 269.691406 183.050781 270.042969 183.15625 270.386719 C 183.261719 270.730469 183.429688 271.039062 183.660156 271.316406 C 183.886719 271.59375 184.160156 271.816406 184.480469 271.984375 C 184.796875 272.152344 185.136719 272.253906 185.492188 272.289062 C 188.097656 272.53125 190.15625 272.824219 191.789062 273.109375 C 186.632812 273.945312 181.445312 274.414062 176.222656 274.507812 C 175.863281 274.515625 175.519531 274.589844 175.1875 274.734375 C 174.859375 274.875 174.570312 275.074219 174.320312 275.332031 C 174.070312 275.589844 173.878906 275.886719 173.746094 276.222656 C 173.613281 276.554688 173.550781 276.902344 173.554688 277.261719 C 173.5625 277.621094 173.636719 277.964844 173.777344 278.292969 C 173.917969 278.625 174.121094 278.914062 174.375 279.164062 C 174.632812 279.414062 174.929688 279.605469 175.261719 279.738281 C 175.597656 279.871094 175.945312 279.9375 176.300781 279.929688 L 176.390625 279.929688 C 181.902344 279.8125 187.378906 279.316406 192.820312 278.4375 C 197.308594 277.628906 201.457031 276.421875 201.457031 273.117188 C 201.457031 270.265625 198.835938 268.113281 186.007812 266.890625 Z M 186.007812 266.890625"/><g clip-path="url(#b)"><path fill="#563D41" d="M 186.1875 282.171875 C 181.058594 282.457031 175.738281 282.601562 170.375 282.601562 C 154.992188 282.601562 140.417969 281.433594 129.332031 279.285156 C 116.707031 276.824219 113.164062 274.007812 112.875 273.117188 C 113.175781 272.222656 116.882812 269.273438 130.164062 266.808594 C 130.527344 266.753906 130.863281 266.628906 131.179688 266.4375 C 131.492188 266.246094 131.753906 266 131.964844 265.699219 C 132.179688 265.402344 132.324219 265.074219 132.40625 264.714844 C 132.484375 264.355469 132.492188 263.996094 132.425781 263.632812 C 132.359375 263.273438 132.222656 262.941406 132.019531 262.632812 C 131.820312 262.328125 131.5625 262.070312 131.257812 261.867188 C 130.953125 261.664062 130.621094 261.53125 130.257812 261.464844 C 129.898438 261.394531 129.539062 261.402344 129.179688 261.480469 C 114.554688 264.191406 107.449219 267.996094 107.449219 273.140625 C 107.449219 278.023438 113.933594 281.710938 127.265625 284.402344 C 138.8125 286.734375 154.125 288.023438 170.398438 288.023438 C 175.859375 288.023438 181.28125 287.878906 186.515625 287.585938 C 186.875 287.566406 187.214844 287.476562 187.539062 287.320312 C 187.863281 287.164062 188.144531 286.953125 188.382812 286.6875 C 188.625 286.417969 188.804688 286.113281 188.921875 285.773438 C 189.039062 285.433594 189.089844 285.085938 189.070312 284.726562 C 189.050781 284.367188 188.960938 284.027344 188.804688 283.703125 C 188.648438 283.378906 188.4375 283.09375 188.167969 282.855469 C 187.902344 282.617188 187.597656 282.4375 187.257812 282.316406 C 186.917969 282.199219 186.570312 282.148438 186.210938 282.171875 Z M 186.1875 282.171875"/></g><path fill="#FFF" d="M 221.734375 16.640625 C 221.734375 16.921875 221.707031 17.195312 221.648438 17.460938 C 221.59375 17.722656 221.511719 17.953125 221.40625 18.15625 C 221.300781 18.355469 221.179688 18.511719 221.042969 18.621094 C 220.902344 18.730469 220.761719 18.785156 220.609375 18.785156 C 220.460938 18.785156 220.316406 18.730469 220.179688 18.621094 C 220.042969 18.511719 219.921875 18.355469 219.816406 18.15625 C 219.710938 17.953125 219.628906 17.722656 219.570312 17.460938 C 219.515625 17.195312 219.484375 16.921875 219.484375 16.640625 C 219.484375 16.355469 219.515625 16.082031 219.570312 15.816406 C 219.628906 15.554688 219.710938 15.324219 219.816406 15.121094 C 219.921875 14.921875 220.042969 14.765625 220.179688 14.65625 C 220.316406 14.546875 220.460938 14.492188 220.609375 14.492188 C 220.761719 14.492188 220.902344 14.546875 221.042969 14.65625 C 221.179688 14.765625 221.300781 14.921875 221.40625 15.121094 C 221.511719 15.324219 221.59375 15.554688 221.648438 15.816406 C 221.707031 16.082031 221.734375 16.355469 221.734375 16.640625 Z M 221.734375 16.640625"/><g fill="#944515"><g><g><path d="M 41.828125 0 L 41.828125 -51.5625 L 31.515625 -51.5625 L 31.515625 -30.9375 L 16.082031 -30.9375 L 16.082031 -51.5625 L 5.769531 -51.5625 L 5.769531 0 L 16.082031 0 L 16.082031 -20.625 L 31.515625 -20.625 L 31.515625 0 Z M 41.828125 0" transform="translate(57.32 349.308)"/></g></g></g><g fill="#944515"><g><g><path d="M 1.152344 0 L 12.835938 0 L 14.855469 -5.554688 L 31.945312 -5.554688 L 34.039062 0 L 45.648438 0 L 23.941406 -53.4375 L 22.859375 -53.4375 Z M 18.605469 -15.214844 L 23.4375 -28.628906 L 28.125 -15.214844 Z M 18.605469 -15.214844" transform="translate(105.198 349.308)"/></g></g></g><g fill="#944515"><g><g><path d="M 3.390625 -3.316406 C 10.382812 0.289062 16.800781 0.648438 19.6875 0.433594 C 29.351562 -0.0703125 35.265625 -6.632812 35.265625 -15.214844 C 35.265625 -23.4375 28.339844 -28.050781 20.335938 -31.007812 C 17.378906 -32.019531 14.855469 -33.316406 14.566406 -36.203125 C 14.351562 -39.085938 16.007812 -41.753906 19.6875 -41.972656 C 21.273438 -42.042969 24.519531 -42.113281 30.214844 -39.808594 L 31.515625 -49.757812 C 24.878906 -52.066406 21.347656 -52.066406 18.675781 -51.921875 C 10.097656 -51.488281 4.109375 -44.855469 4.109375 -36.203125 C 4.109375 -27.546875 11.320312 -23.4375 19.398438 -20.480469 C 22.285156 -19.472656 24.519531 -18.171875 24.734375 -15.214844 C 25.023438 -12.402344 22.425781 -10.242188 19.398438 -10.023438 C 17.019531 -9.808594 10.601562 -9.953125 4.6875 -14.132812 Z M 3.390625 -3.316406" transform="translate(152.498 349.308)"/></g></g></g><g fill="#944515"><g><g><path d="M 16.082031 0 L 16.082031 -51.5625 L 5.769531 -51.5625 L 5.769531 0 Z M 16.082031 0" transform="translate(190.857 349.308)"/></g></g></g><g fill="#944515"><g><g><path d="M 21.128906 -51.5625 L 5.769531 -51.5625 L 5.769531 0 L 21.128906 0 C 55.457031 0 55.457031 -51.5625 21.128906 -51.5625 Z M 21.128906 -41.25 C 41.175781 -41.25 41.175781 -10.3125 21.128906 -10.3125 L 16.082031 -10.3125 L 16.082031 -41.25 Z M 21.128906 -41.25" transform="translate(212.993 349.308)"/></g></g></g><g fill="#944515"><g><g><path d="M 1.152344 0 L 12.835938 0 L 14.855469 -5.554688 L 31.945312 -5.554688 L 34.039062 0 L 45.648438 0 L 23.941406 -53.4375 L 22.859375 -53.4375 Z M 18.605469 -15.214844 L 23.4375 -28.628906 L 28.125 -15.214844 Z M 18.605469 -15.214844" transform="translate(263.971 349.308)"/></g></g></g><g fill="#39AD40"><g><g><path d="M 6.75 0 L 0.375 0 L 0.375 -9.984375 L 1.953125 -9.984375 L 1.953125 -1.421875 L 6.75 -1.421875 Z M 6.75 0" transform="translate(63.83 370.3)"/></g></g></g><g fill="#39AD40"><g><g><path d="M -0.25 -5 C -0.25 -5.664062 -0.175781 -6.304688 -0.03125 -6.921875 C 0.101562 -7.546875 0.320312 -8.097656 0.625 -8.578125 C 0.925781 -9.054688 1.320312 -9.4375 1.8125 -9.71875 C 2.300781 -10.007812 2.890625 -10.15625 3.578125 -10.15625 C 4.265625 -10.15625 4.847656 -10.007812 5.328125 -9.71875 C 5.816406 -9.4375 6.210938 -9.054688 6.515625 -8.578125 C 6.828125 -8.097656 7.050781 -7.546875 7.1875 -6.921875 C 7.332031 -6.304688 7.40625 -5.664062 7.40625 -5 C 7.40625 -4.332031 7.332031 -3.6875 7.1875 -3.0625 C 7.050781 -2.445312 6.832031 -1.894531 6.53125 -1.40625 C 6.226562 -0.925781 5.832031 -0.539062 5.34375 -0.25 C 4.863281 0.03125 4.273438 0.171875 3.578125 0.171875 C 2.878906 0.171875 2.285156 0.03125 1.796875 -0.25 C 1.304688 -0.539062 0.910156 -0.925781 0.609375 -1.40625 C 0.304688 -1.894531 0.0859375 -2.445312 -0.046875 -3.0625 C -0.179688 -3.6875 -0.25 -4.332031 -0.25 -5 Z M 1.328125 -5 C 1.328125 -4.550781 1.359375 -4.101562 1.421875 -3.65625 C 1.492188 -3.207031 1.613281 -2.800781 1.78125 -2.4375 C 1.945312 -2.082031 2.175781 -1.796875 2.46875 -1.578125 C 2.757812 -1.359375 3.128906 -1.25 3.578125 -1.25 C 4.023438 -1.25 4.390625 -1.359375 4.671875 -1.578125 C 4.960938 -1.796875 5.191406 -2.082031 5.359375 -2.4375 C 5.523438 -2.800781 5.640625 -3.207031 5.703125 -3.65625 C 5.773438 -4.101562 5.8125 -4.550781 5.8125 -5 C 5.8125 -5.445312 5.773438 -5.890625 5.703125 -6.328125 C 5.640625 -6.773438 5.523438 -7.175781 5.359375 -7.53125 C 5.191406 -7.894531 4.960938 -8.1875 4.671875 -8.40625 C 4.378906 -8.625 4.015625 -8.734375 3.578125 -8.734375 C 2.847656 -8.734375 2.289062 -8.398438 1.90625 -7.734375 C 1.519531 -7.078125 1.328125 -6.164062 1.328125 -5 Z M 1.328125 -5" transform="translate(82.2 370.3)"/></g></g></g><g fill="#39AD40"><g><g><path d="M 5.9375 0 L 5.21875 -2.375 L 1.90625 -2.375 L 1.203125 0 L -0.453125 0 L 2.65625 -9.984375 L 4.484375 -9.984375 L 7.59375 0 Z M 2.328125 -3.78125 L 4.796875 -3.78125 L 3.578125 -7.890625 Z M 2.328125 -3.78125" transform="translate(100.569 370.3)"/></g></g></g><g fill="#39AD40"><g><g><path d="M 6.75 0 L 4.921875 0 L 1.953125 -7.234375 L 1.953125 0 L 0.375 0 L 0.375 -9.984375 L 2.359375 -9.984375 L 5.171875 -3.109375 L 5.171875 -9.984375 L 6.75 -9.984375 Z M 6.75 0" transform="translate(118.938 370.3)"/></g></g></g><g fill="#39AD40"><g><g><path d="M 7.28125 -3.046875 C 7.15625 -2.554688 6.988281 -2.113281 6.78125 -1.71875 C 6.582031 -1.320312 6.335938 -0.984375 6.046875 -0.703125 C 5.753906 -0.421875 5.410156 -0.203125 5.015625 -0.046875 C 4.628906 0.0976562 4.1875 0.171875 3.6875 0.171875 C 2.976562 0.171875 2.378906 0.03125 1.890625 -0.25 C 1.410156 -0.539062 1.015625 -0.925781 0.703125 -1.40625 C 0.398438 -1.894531 0.179688 -2.445312 0.046875 -3.0625 C -0.0859375 -3.6875 -0.15625 -4.332031 -0.15625 -5 C -0.15625 -5.664062 -0.0859375 -6.304688 0.046875 -6.921875 C 0.179688 -7.546875 0.398438 -8.097656 0.703125 -8.578125 C 1.003906 -9.054688 1.390625 -9.4375 1.859375 -9.71875 C 2.335938 -10.007812 2.914062 -10.15625 3.59375 -10.15625 C 3.8125 -10.15625 4.03125 -10.125 4.25 -10.0625 C 4.476562 -10.007812 4.6875 -9.925781 4.875 -9.8125 C 5.070312 -9.695312 5.242188 -9.554688 5.390625 -9.390625 C 5.535156 -9.222656 5.640625 -9.03125 5.703125 -8.8125 L 5.703125 -9.984375 L 7.125 -9.984375 L 7.125 -6.203125 L 5.703125 -6.203125 C 5.703125 -6.515625 5.660156 -6.820312 5.578125 -7.125 C 5.503906 -7.425781 5.382812 -7.691406 5.21875 -7.921875 C 5.050781 -8.160156 4.835938 -8.351562 4.578125 -8.5 C 4.328125 -8.65625 4.03125 -8.734375 3.6875 -8.734375 C 3.226562 -8.734375 2.859375 -8.625 2.578125 -8.40625 C 2.296875 -8.1875 2.066406 -7.894531 1.890625 -7.53125 C 1.710938 -7.175781 1.585938 -6.773438 1.515625 -6.328125 C 1.453125 -5.890625 1.421875 -5.445312 1.421875 -5 C 1.421875 -4.550781 1.453125 -4.101562 1.515625 -3.65625 C 1.585938 -3.207031 1.707031 -2.800781 1.875 -2.4375 C 2.050781 -2.082031 2.28125 -1.796875 2.5625 -1.578125 C 2.851562 -1.359375 3.226562 -1.25 3.6875 -1.25 C 4.332031 -1.25 4.828125 -1.457031 5.171875 -1.875 C 5.523438 -2.289062 5.804688 -2.847656 6.015625 -3.546875 Z M 7.28125 -3.046875" transform="translate(137.307 370.3)"/></g></g></g><g fill="#39AD40"><g><g><path d="M 5.9375 0 L 5.21875 -2.375 L 1.90625 -2.375 L 1.203125 0 L -0.453125 0 L 2.65625 -9.984375 L 4.484375 -9.984375 L 7.59375 0 Z M 2.328125 -3.78125 L 4.796875 -3.78125 L 3.578125 -7.890625 Z M 2.328125 -3.78125" transform="translate(155.675 370.3)"/></g></g></g><g fill="#39AD40"><g><g><path d="M 6.75 0 L 0.375 0 L 0.375 -9.984375 L 1.953125 -9.984375 L 1.953125 -1.421875 L 6.75 -1.421875 Z M 6.75 0" transform="translate(174.044 370.3)"/></g></g></g><g fill="#39AD40"><g><g><path d="M 7.28125 -3.046875 C 7.15625 -2.554688 6.988281 -2.113281 6.78125 -1.71875 C 6.582031 -1.320312 6.335938 -0.984375 6.046875 -0.703125 C 5.753906 -0.421875 5.410156 -0.203125 5.015625 -0.046875 C 4.628906 0.0976562 4.1875 0.171875 3.6875 0.171875 C 2.976562 0.171875 2.378906 0.03125 1.890625 -0.25 C 1.410156 -0.539062 1.015625 -0.925781 0.703125 -1.40625 C 0.398438 -1.894531 0.179688 -2.445312 0.046875 -3.0625 C -0.0859375 -3.6875 -0.15625 -4.332031 -0.15625 -5 C -0.15625 -5.664062 -0.0859375 -6.304688 0.046875 -6.921875 C 0.179688 -7.546875 0.398438 -8.097656 0.703125 -8.578125 C 1.003906 -9.054688 1.390625 -9.4375 1.859375 -9.71875 C 2.335938 -10.007812 2.914062 -10.15625 3.59375 -10.15625 C 3.8125 -10.15625 4.03125 -10.125 4.25 -10.0625 C 4.476562 -10.007812 4.6875 -9.925781 4.875 -9.8125 C 5.070312 -9.695312 5.242188 -9.554688 5.390625 -9.390625 C 5.535156 -9.222656 5.640625 -9.03125 5.703125 -8.8125 L 5.703125 -9.984375 L 7.125 -9.984375 L 7.125 -6.203125 L 5.703125 -6.203125 C 5.703125 -6.515625 5.660156 -6.820312 5.578125 -7.125 C 5.503906 -7.425781 5.382812 -7.691406 5.21875 -7.921875 C 5.050781 -8.160156 4.835938 -8.351562 4.578125 -8.5 C 4.328125 -8.65625 4.03125 -8.734375 3.6875 -8.734375 C 3.226562 -8.734375 2.859375 -8.625 2.578125 -8.40625 C 2.296875 -8.1875 2.066406 -7.894531 1.890625 -7.53125 C 1.710938 -7.175781 1.585938 -6.773438 1.515625 -6.328125 C 1.453125 -5.890625 1.421875 -5.445312 1.421875 -5 C 1.421875 -4.550781 1.453125 -4.101562 1.515625 -3.65625 C 1.585938 -3.207031 1.707031 -2.800781 1.875 -2.4375 C 2.050781 -2.082031 2.28125 -1.796875 2.5625 -1.578125 C 2.851562 -1.359375 3.226562 -1.25 3.6875 -1.25 C 4.332031 -1.25 4.828125 -1.457031 5.171875 -1.875 C 5.523438 -2.289062 5.804688 -2.847656 6.015625 -3.546875 Z M 7.28125 -3.046875" transform="translate(192.413 370.3)"/></g></g></g><g fill="#39AD40"><g><g><path d="M 6.75 -3.5625 C 6.75 -2.988281 6.6875 -2.472656 6.5625 -2.015625 C 6.4375 -1.554688 6.242188 -1.164062 5.984375 -0.84375 C 5.722656 -0.519531 5.390625 -0.269531 4.984375 -0.09375 C 4.585938 0.0820312 4.113281 0.171875 3.5625 0.171875 C 3 0.171875 2.519531 0.0820312 2.125 -0.09375 C 1.726562 -0.269531 1.398438 -0.519531 1.140625 -0.84375 C 0.878906 -1.164062 0.6875 -1.554688 0.5625 -2.015625 C 0.4375 -2.484375 0.375 -3.003906 0.375 -3.578125 L 0.375 -9.984375 L 1.953125 -9.984375 L 1.953125 -3.5625 C 1.953125 -3.3125 1.96875 -3.050781 2 -2.78125 C 2.039062 -2.507812 2.113281 -2.257812 2.21875 -2.03125 C 2.332031 -1.800781 2.492188 -1.613281 2.703125 -1.46875 C 2.921875 -1.320312 3.207031 -1.25 3.5625 -1.25 C 3.90625 -1.25 4.179688 -1.320312 4.390625 -1.46875 C 4.609375 -1.613281 4.773438 -1.796875 4.890625 -2.015625 C 5.003906 -2.242188 5.078125 -2.492188 5.109375 -2.765625 C 5.148438 -3.046875 5.171875 -3.3125 5.171875 -3.5625 L 5.171875 -9.984375 L 6.75 -9.984375 Z M 6.75 -3.5625" transform="translate(210.782 370.3)"/></g></g></g><g fill="#39AD40"><g><g><path d="M 6.75 0 L 0.375 0 L 0.375 -9.984375 L 1.953125 -9.984375 L 1.953125 -1.421875 L 6.75 -1.421875 Z M 6.75 0" transform="translate(229.151 370.3)"/></g></g></g><g fill="#39AD40"><g><g><path d="M 5.9375 0 L 5.21875 -2.375 L 1.90625 -2.375 L 1.203125 0 L -0.453125 0 L 2.65625 -9.984375 L 4.484375 -9.984375 L 7.59375 0 Z M 2.328125 -3.78125 L 4.796875 -3.78125 L 3.578125 -7.890625 Z M 2.328125 -3.78125" transform="translate(247.52 370.3)"/></g></g></g><g fill="#39AD40"><g><g><path d="M 7.109375 -6.34375 L 5.703125 -6.34375 L 5.703125 -8.5625 L 4.359375 -8.5625 L 4.359375 -1.421875 L 5.9375 -1.421875 L 5.9375 0 L 1.1875 0 L 1.1875 -1.421875 L 2.765625 -1.421875 L 2.765625 -8.5625 L 1.40625 -8.5625 L 1.40625 -6.34375 L 0 -6.34375 L 0 -9.984375 L 7.109375 -9.984375 Z M 7.109375 -6.34375" transform="translate(265.889 370.3)"/></g></g></g><g fill="#39AD40"><g><g><path d="M -0.25 -5 C -0.25 -5.664062 -0.175781 -6.304688 -0.03125 -6.921875 C 0.101562 -7.546875 0.320312 -8.097656 0.625 -8.578125 C 0.925781 -9.054688 1.320312 -9.4375 1.8125 -9.71875 C 2.300781 -10.007812 2.890625 -10.15625 3.578125 -10.15625 C 4.265625 -10.15625 4.847656 -10.007812 5.328125 -9.71875 C 5.816406 -9.4375 6.210938 -9.054688 6.515625 -8.578125 C 6.828125 -8.097656 7.050781 -7.546875 7.1875 -6.921875 C 7.332031 -6.304688 7.40625 -5.664062 7.40625 -5 C 7.40625 -4.332031 7.332031 -3.6875 7.1875 -3.0625 C 7.050781 -2.445312 6.832031 -1.894531 6.53125 -1.40625 C 6.226562 -0.925781 5.832031 -0.539062 5.34375 -0.25 C 4.863281 0.03125 4.273438 0.171875 3.578125 0.171875 C 2.878906 0.171875 2.285156 0.03125 1.796875 -0.25 C 1.304688 -0.539062 0.910156 -0.925781 0.609375 -1.40625 C 0.304688 -1.894531 0.0859375 -2.445312 -0.046875 -3.0625 C -0.179688 -3.6875 -0.25 -4.332031 -0.25 -5 Z M 1.328125 -5 C 1.328125 -4.550781 1.359375 -4.101562 1.421875 -3.65625 C 1.492188 -3.207031 1.613281 -2.800781 1.78125 -2.4375 C 1.945312 -2.082031 2.175781 -1.796875 2.46875 -1.578125 C 2.757812 -1.359375 3.128906 -1.25 3.578125 -1.25 C 4.023438 -1.25 4.390625 -1.359375 4.671875 -1.578125 C 4.960938 -1.796875 5.191406 -2.082031 5.359375 -2.4375 C 5.523438 -2.800781 5.640625 -3.207031 5.703125 -3.65625 C 5.773438 -4.101562 5.8125 -4.550781 5.8125 -5 C 5.8125 -5.445312 5.773438 -5.890625 5.703125 -6.328125 C 5.640625 -6.773438 5.523438 -7.175781 5.359375 -7.53125 C 5.191406 -7.894531 4.960938 -8.1875 4.671875 -8.40625 C 4.378906 -8.625 4.015625 -8.734375 3.578125 -8.734375 C 2.847656 -8.734375 2.289062 -8.398438 1.90625 -7.734375 C 1.519531 -7.078125 1.328125 -6.164062 1.328125 -5 Z M 1.328125 -5" transform="translate(284.258 370.3)"/></g></g></g><g fill="#39AD40"><g><g><path d="M 7.265625 0 L 5.265625 0 L 2.671875 -4.046875 L 1.953125 -4.046875 L 1.953125 0 L 0.375 0 L 0.375 -9.984375 L 3.671875 -9.984375 C 4.765625 -9.984375 5.613281 -9.734375 6.21875 -9.234375 C 6.820312 -8.734375 7.125 -7.988281 7.125 -7 C 7.125 -6.5625 7.054688 -6.175781 6.921875 -5.84375 C 6.785156 -5.507812 6.59375 -5.222656 6.34375 -4.984375 C 6.101562 -4.742188 5.816406 -4.550781 5.484375 -4.40625 C 5.160156 -4.269531 4.804688 -4.175781 4.421875 -4.125 Z M 5.546875 -7.03125 C 5.546875 -7.539062 5.378906 -7.921875 5.046875 -8.171875 C 4.710938 -8.429688 4.253906 -8.5625 3.671875 -8.5625 L 1.953125 -8.5625 L 1.953125 -5.46875 L 3.671875 -5.46875 C 4.253906 -5.46875 4.710938 -5.59375 5.046875 -5.84375 C 5.378906 -6.101562 5.546875 -6.5 5.546875 -7.03125 Z M 5.546875 -7.03125" transform="translate(302.627 370.3)"/></g></g></g></svg>